<?xml version="1.0" encoding="utf-8"?>
<!-- Generator: Adobe Illustrator 23.0.2, SVG Export Plug-In . SVG Version: 6.00 Build 0)  -->
<svg version="1.1" id="Layer_1" xmlns="http://www.w3.org/2000/svg" xmlns:xlink="http://www.w3.org/1999/xlink" x="0px" y="0px"
	 viewBox="0 0 32 25" style="enable-background:new 0 0 32 25;" xml:space="preserve">
<path d="M30.4,12.4l-3.9-0.1V2.6c0-1.4-1.1-2.5-2.5-2.5l-16.1,0c-1.4,0-2.5,1.1-2.5,2.5V6H2.4C1.1,6,0.1,7,0.1,8.3v14.4
	c0,1.2,1,2.2,2.2,2.2h8.6c0.9,0,1.8-0.6,2.2-1.4l0-0.1h9.3c0.2,0,0.4-0.2,0.4-0.4v-1.2c0-0.8-0.6-1.4-1.4-1.4h-1.8l0.1-2.4l4.6,0.1
	v5.4c0,0.8,0.7,1.5,1.5,1.5h4.7c0.8,0,1.5-0.6,1.5-1.4v-9.5C31.9,13.1,31.2,12.4,30.4,12.4z M0.9,8.2c0-0.8,0.7-1.5,1.5-1.5h0h8.6
	c0.8,0,1.5,0.7,1.5,1.5l-0.1,0.4L0.9,8.6V8.2z M0.9,9.4l11.5,0.1l0,12H0.9V9.4z M12.5,22.7c0,0.8-0.7,1.5-1.5,1.5H2.4
	c-0.8,0-1.5-0.7-1.5-1.5v-0.4l11.6,0.1V22.7z M21.4,21.1c0.4,0,0.7,0.3,0.7,0.7v0.7h-8.8l0-1.4H21.4z M13.1,17.9l5.7,0.1v2.4h-5.6
	L13.1,17.9z M24.1,17.2h-4.9l-6-0.1l-0.1-1.9l11,0.1L24.1,17.2z M24.2,13.8l-0.1,0.6h-11V8.2c0-1.2-1-2.2-2.2-2.2H6.2V2.6
	c0-1,0.8-1.7,1.8-1.7l16.1,0c0.9,0,1.7,0.7,1.8,1.6l-0.1,9.8l-0.1,0C24.8,12.4,24.2,13,24.2,13.8z M31.1,23.4c0,0.4-0.3,0.7-0.8,0.7
	h-4.7c-0.4,0-0.8-0.3-0.8-0.7l0-0.6l6.2,0.1V23.4z M31.1,22h-6.2v-6.7l6.2,0.1L31.1,22z M31.1,14.5H25v-0.6c0-0.4,0.3-0.7,0.8-0.7
	l4.7,0c0.4,0,0.8,0.3,0.8,0.8L31.1,14.5z"/>
</svg>
