<?xml version="1.0" encoding="utf-8"?>
<!-- Generator: Adobe Illustrator 23.0.2, SVG Export Plug-In . SVG Version: 6.00 Build 0)  -->
<svg version="1.1" id="Layer_1" xmlns="http://www.w3.org/2000/svg" xmlns:xlink="http://www.w3.org/1999/xlink" x="0px" y="0px"
	 viewBox="0 0 31.7 31.7" style="enable-background:new 0 0 31.7 31.7;" xml:space="preserve">
<g>
	<path d="M19.5,7.1c-1.2-0.5-2.4-0.7-3.7-0.7c-1.2,0-2.5,0.2-3.6,0.7C7.3,9.1,5,14.7,7,19.5c2,4.9,7.6,7.2,12.5,5.2
		c2.3-1,4.2-2.8,5.2-5.2C26.7,14.7,24.4,9.1,19.5,7.1z M23.7,19.1c-1.8,4.4-6.8,6.4-11.1,4.6C8.2,22,6.2,17,8,12.6
		C9.8,8.3,14.8,6.2,19.1,8c2.1,0.9,3.8,2.5,4.6,4.6C24.6,14.7,24.6,17,23.7,19.1z"/>
	<path d="M1.9,20.9c-2-5.4-0.6-11.4,3.4-15.4C8,2.7,11.7,1,15.7,1h0.2c3.9,0,7.6,1.5,10.4,4.2l0.2,0.2h-2C24.2,5.5,24,5.7,24,6
		c0,0.3,0.2,0.5,0.5,0.5h3.2c0.1,0,0.3-0.1,0.4-0.2c0.1-0.1,0.1-0.2,0.1-0.3V2.8c0-0.3-0.2-0.5-0.5-0.5c0,0,0,0,0,0
		c-0.3,0-0.5,0.2-0.5,0.5v2L27,4.6C24,1.6,20,0,15.8,0h-0.2C6.9,0.1-0.1,7.3,0,16.1c0,1.8,0.3,3.5,0.9,5.2c0.1,0.2,0.3,0.3,0.5,0.3
		h0.2C1.8,21.5,2,21.2,1.9,20.9C1.9,20.9,1.9,20.9,1.9,20.9z"/>
	<path d="M30.7,10.5L30.7,10.5c0-0.2-0.2-0.3-0.4-0.3c-0.1,0-0.1,0-0.2,0c-0.3,0.1-0.4,0.4-0.3,0.6c2.8,7.7-1.2,16.2-9,19
		c-1.6,0.6-3.3,0.9-5,0.9c-3.9,0-7.6-1.5-10.3-4.2l-0.2-0.2h2c0.3,0,0.5-0.2,0.5-0.5c0-0.3-0.2-0.5-0.5-0.5l-3.2,0
		c-0.3,0-0.5,0.2-0.5,0.5c0,0,0,0,0,0V29c0.1,0.3,0.3,0.5,0.6,0.4c0.2,0,0.4-0.2,0.4-0.4v-2l0.2,0.2c6.3,6.1,16.3,6,22.4-0.3
		C31.4,22.6,32.8,16.2,30.7,10.5z"/>
</g>
</svg>
