<?xml version="1.0" encoding="utf-8"?>
<!-- Generator: Adobe Illustrator 23.0.2, SVG Export Plug-In . SVG Version: 6.00 Build 0)  -->
<svg version="1.1" id="Layer_1" xmlns="http://www.w3.org/2000/svg" xmlns:xlink="http://www.w3.org/1999/xlink" x="0px" y="0px"
	 viewBox="0 0 23.9 32" style="enable-background:new 0 0 23.9 32;" xml:space="preserve">
<g>
	<path d="M4.9,17.6h13.5c3.1-0.3,5.5-2.9,5.5-6c0-2.7-1.8-5.1-4.4-5.8h-0.1V5.7c-0.6-3.7-4.1-6.2-7.9-5.6c-2,0.3-3.8,1.6-4.8,3.3
		L6.6,3.5H6.5C6.2,3.5,6,3.5,5.8,3.5c-2,0-3.6,1.6-3.7,3.6c0,0.3,0,0.5,0.1,0.8V8L2.1,8.1C0.8,9,0,10.6,0,12.2
		C0,15,2.1,17.3,4.9,17.6z M3,8.6L3,8.6C3.3,8.5,3.4,8.2,3.3,8C3.1,7.7,3.1,7.4,3.1,7.1c0-1.5,1.2-2.7,2.7-2.7
		c0.3,0,0.6,0.1,0.9,0.2c0.1,0,0.1,0,0.2,0c0.2,0,0.4-0.1,0.5-0.3c1.4-2.9,4.9-4.2,7.8-2.8c1.9,0.9,3.1,2.7,3.3,4.8
		c0,0.2,0.2,0.4,0.4,0.4c2.7,0.4,4.6,3,4.2,5.7c-0.4,2.4-2.3,4.1-4.7,4.3H4.9C2.7,16.4,1,14.5,1,12.2C1,10.7,1.8,9.4,3,8.6z"/>
	<path d="M12.5,27.8h-0.1v-8c0-0.3-0.2-0.5-0.5-0.5c-0.3,0-0.5,0.2-0.5,0.5v8h-0.1c-1.1,0.3-1.8,1.5-1.4,2.7
		c0.1,0.3,0.3,0.6,0.5,0.9c0.4,0.4,0.9,0.6,1.5,0.7h0.1c1.2,0,2.1-1,2.1-2.2c0-0.5-0.2-1.1-0.6-1.5C13.2,28.1,12.9,27.9,12.5,27.8z
		 M11.9,31c-0.3,0-0.6-0.1-0.8-0.4c-0.2-0.2-0.3-0.5-0.3-0.8c0-0.6,0.5-1.1,1.2-1.1c0.3,0,0.6,0.1,0.8,0.4c0.2,0.2,0.3,0.5,0.3,0.8
		C13,30.5,12.5,31,11.9,31z"/>
	<path d="M8.3,19.2C8.3,19.2,8.3,19.2,8.3,19.2c-0.3,0-0.5,0.2-0.5,0.5v3.8c0,0.8-0.6,1.4-1.4,1.4H4.3v-0.1
		c-0.3-0.9-1.1-1.5-2.1-1.5c-1.2,0-2.2,0.9-2.2,2.1c0,1.2,0.9,2.2,2.1,2.2c1,0,1.8-0.6,2.1-1.5v-0.1h2.2c1.3,0,2.3-1,2.3-2.3v-3.8
		C8.8,19.5,8.5,19.2,8.3,19.2z M2.2,26.5C1.5,26.5,1,26,1,25.4s0.5-1.2,1.2-1.2s1.2,0.5,1.2,1.2S2.8,26.5,2.2,26.5z"/>
	<path d="M21.6,23.2c-0.9,0-1.8,0.6-2,1.5v0.1h-2.2c-0.8,0-1.4-0.6-1.4-1.4v-3.8c0-0.3-0.2-0.5-0.5-0.5c-0.3,0-0.5,0.2-0.5,0.5v3.8
		c0,1.3,1,2.3,2.3,2.3h2.1V26c0.3,1.1,1.5,1.8,2.7,1.5s1.8-1.5,1.5-2.7C23.4,23.9,22.6,23.2,21.6,23.2z M21.7,26.5
		c-0.6,0-1.2-0.5-1.2-1.2s0.5-1.2,1.2-1.2c0.6,0,1.2,0.5,1.2,1.2S22.3,26.5,21.7,26.5z"/>
</g>
</svg>
