<svg xmlns="http://www.w3.org/2000/svg" viewBox="0 0 32 25.04"><title>Desktop &amp;amp; Mobile User Interfaces</title><g id="Layer_2" data-name="Layer 2"><g id="Layer_1-2" data-name="Layer 1"><path d="M25.68,25a1.61,1.61,0,0,1-1.61-1.6v-5.3l-4.32-.05-.05,2.19,1.65,0a1.55,1.55,0,0,1,1.55,1.56V23a.48.48,0,0,1-.48.49H13.18A2.46,2.46,0,0,1,10.91,25H2.36A2.36,2.36,0,0,1,0,22.68V8.25A2.36,2.36,0,0,1,2.36,5.89H5.3l0-3.27A2.63,2.63,0,0,1,8,0H24a2.63,2.63,0,0,1,2.63,2.62v9.63l3.74.05A1.62,1.62,0,0,1,32,13.91v9.53A1.61,1.61,0,0,1,30.39,25ZM25,23.44a.64.64,0,0,0,.64.63h4.71a.64.64,0,0,0,.64-.63V23l-6-.05ZM1,22.68a1.39,1.39,0,0,0,1.39,1.39h8.55a1.39,1.39,0,0,0,1.39-1.39v-.26L1,22.37Zm12.31-.26,8.61,0,0-.58a.58.58,0,0,0-.58-.59H13.28ZM25,21.89l5.94,0L31,15.47l-6-.05ZM1,21.35l11.28,0L12.3,9.58,1,9.53Zm12.31-1.07,5.39,0,0-2.19-5.44-.05Zm0-3.21,5.93.05H24l.05-1.65-10.79-.05Zm12.4-3.79a.64.64,0,0,0-.64.63v.48l5.94,0,.05-.53a.64.64,0,0,0-.64-.63ZM8,1A1.65,1.65,0,0,0,6.32,2.62V5.84l4.59,0a2.38,2.38,0,0,1,2.37,2.36v6.14l10.74,0,.05-.53a1.61,1.61,0,0,1,1.56-1.6l.05-9.69A1.65,1.65,0,0,0,24,1ZM2.36,6.85A1.41,1.41,0,0,0,1,8.25v.26l11.28.05.05-.31a1.4,1.4,0,0,0-1.39-1.4Z"/></g></g></svg>