<svg xmlns="http://www.w3.org/2000/svg" viewBox="0 0 31.85 32"><title>Ideation &amp;amp; Demand Management</title><g id="Layer_2" data-name="Layer 2"><g id="Layer_1-2" data-name="Layer 1"><path style="" fill="#f00155" d="M20.71,12.19V13a1.49,1.49,0,0,0,.57,1.17l.06.05v1.91a1.39,1.39,0,0,0,1.39,1.39H25a1.39,1.39,0,0,0,1.39-1.39V14.22l.06-.05A1.48,1.48,0,0,0,27,13v-.81a2.53,2.53,0,0,1,.84-1.87A6,6,0,0,0,29.8,5.93,5.87,5.87,0,0,0,28,1.71,6,6,0,0,0,23.79,0h0a5.93,5.93,0,0,0-3.9,10.33A2.51,2.51,0,0,1,20.71,12.19Zm4.76,3.94a.45.45,0,0,1-.45.45H22.73a.45.45,0,0,1-.45-.45V14.49h3.19ZM23.87.94a5,5,0,0,1,3.36,8.68,3.51,3.51,0,0,0-1.14,2.57V13a.55.55,0,0,1-.54.55H24.34V8.82a.47.47,0,1,0-.94,0v4.73H22.2a.55.55,0,0,1-.55-.55v-.81a3.46,3.46,0,0,0-1.13-2.56,5,5,0,0,1-1.64-3.8A5,5,0,0,1,23.87.94Z"/><path d="M31.65,21a2.32,2.32,0,0,0-2.11-1.37,2.41,2.41,0,0,0-.94.2l-6.92,2.56a.49.49,0,0,0-.25.26.45.45,0,0,0,0,.36.46.46,0,0,0,.43.28.45.45,0,0,0,.19-.05L29,20.66a1.41,1.41,0,0,1,.54-.11,1.36,1.36,0,0,1,1.27,1.86,1.33,1.33,0,0,1-.72.75l-8.4,3.71a5.07,5.07,0,0,1-2,.43,5,5,0,0,1-2.24-.53l-3.08-1.53a6,6,0,0,0-2.66-.62,6.07,6.07,0,0,0-2.47.53l-.15.07L6.63,19.73,10,18.25a6.57,6.57,0,0,1,4.89-.15L21,20.37a1.27,1.27,0,0,1-.44,2.46,1.39,1.39,0,0,1-.4-.06l-4.78-1.62a.39.39,0,0,0-.15,0,.46.46,0,0,0-.45.32.46.46,0,0,0,.3.59l4.78,1.62a2.06,2.06,0,0,0,.7.12,2.21,2.21,0,0,0,.77-4.29l-6.18-2.27a7.39,7.39,0,0,0-5.6.17L6.26,18.87l-.08-.12A1.43,1.43,0,0,0,5,18.1a1.33,1.33,0,0,0-.58.13L.31,20a.48.48,0,0,0-.28.43L0,31.53a.47.47,0,0,0,.22.4A.45.45,0,0,0,.47,32,.5.5,0,0,0,.68,32l8-4.05a1.44,1.44,0,0,0,.79-1.69l0-.16L9.64,26a5,5,0,0,1,4.28.1L17,27.61a6,6,0,0,0,2.66.63,5.89,5.89,0,0,0,2.41-.51L30.47,24A2.31,2.31,0,0,0,31.65,21ZM8.28,27.06.94,30.76v-3.1l1.94-1a.47.47,0,0,0-.21-.89.54.54,0,0,0-.21.05L1,26.61l0-5.84,3.81-1.68A.49.49,0,0,1,5,19a.48.48,0,0,1,.45.3L8.55,26.4A.5.5,0,0,1,8.28,27.06Z"/></g></g></svg>