<?xml version="1.0" encoding="utf-8"?>
<!-- Generator: Adobe Illustrator 23.0.2, SVG Export Plug-In . SVG Version: 6.00 Build 0)  -->
<svg version="1.1" id="Layer_1" xmlns="http://www.w3.org/2000/svg" xmlns:xlink="http://www.w3.org/1999/xlink" x="0px" y="0px"
	 viewBox="0 0 31.9 32" style="enable-background:new 0 0 31.9 32;" xml:space="preserve">
<g>
	<path style="" fill="#f00155" d="M20.7,12.2V13c0,0.5,0.2,0.9,0.6,1.2l0.1,0v1.9c0,0.8,0.6,1.4,1.4,1.4H25c0.8,0,1.4-0.6,1.4-1.4v-1.9l0.1,0
		c0.4-0.3,0.6-0.7,0.5-1.2v-0.8c0-0.7,0.3-1.4,0.8-1.9c1.2-1.1,1.9-2.7,2-4.4c0-1.6-0.7-3.1-1.8-4.2C26.9,0.6,25.4,0,23.8,0
		c-3.3,0-5.9,2.7-5.9,6c0,1.7,0.7,3.2,2,4.3C20.4,10.8,20.7,11.5,20.7,12.2z M25.5,16.1c0,0.2-0.2,0.5-0.4,0.5h-2.3
		c-0.2,0-0.4-0.2-0.4-0.5v-1.6h3.2V16.1z M23.9,0.9c2.8,0,5,2.3,5,5c0,1.4-0.6,2.7-1.6,3.7c-0.7,0.7-1.1,1.6-1.1,2.6V13
		c0,0.3-0.2,0.5-0.5,0.5h-1.2V8.8c0-0.3-0.2-0.5-0.5-0.5s-0.5,0.2-0.5,0.5v4.7h-1.2c-0.3,0-0.5-0.2-0.5-0.5v-0.8
		c0-1-0.4-1.9-1.1-2.6c-1.1-1-1.7-2.4-1.6-3.8C18.9,3.1,21.2,0.9,23.9,0.9z"/>
	<path style="" fill="#f00155" d="M31.7,21c-0.4-0.8-1.2-1.4-2.1-1.4c-0.3,0-0.6,0.1-0.9,0.2L22.8,22c0-0.1,0-0.2,0-0.4c0-0.9-0.6-1.8-1.5-2.1l-6.2-2.3
		c-1.8-0.7-3.8-0.6-5.6,0.2l-3.3,1.5l-0.1-0.1c-0.3-0.4-0.7-0.6-1.2-0.7c-0.2,0-0.4,0-0.6,0.1L0.3,20C0.1,20.1,0,20.2,0,20.4l0,11.1
		c0,0.2,0.1,0.3,0.2,0.4C0.3,32,0.4,32,0.5,32c0.1,0,0.1,0,0.2,0l8-4c0.6-0.3,1-1,0.8-1.7v-0.2L9.6,26c1.4-0.6,2.9-0.6,4.3,0.1
		l3.1,1.5c0.8,0.4,1.7,0.6,2.7,0.6c0.8,0,1.7-0.2,2.4-0.5l8.4-3.7C31.6,23.5,32.1,22.2,31.7,21z M8.3,27.1
		C8.3,27.1,8.3,27.1,8.3,27.1l-7.3,3.7v-3.1l1.9-1c0.2-0.1,0.3-0.4,0.2-0.6c-0.1-0.2-0.2-0.3-0.4-0.3c-0.1,0-0.1,0-0.2,0L1,26.6
		v-5.8l3.8-1.7C4.9,19,4.9,19,5,19c0.2,0,0.4,0.1,0.5,0.3l3.1,7.1C8.7,26.7,8.5,26.9,8.3,27.1z M30.8,22.4c-0.1,0.3-0.4,0.6-0.7,0.8
		l-8.4,3.7c-0.6,0.3-1.3,0.4-2,0.4c-0.8,0-1.5-0.2-2.2-0.5l-3.1-1.5c-0.8-0.4-1.7-0.6-2.7-0.6c-0.9,0-1.7,0.2-2.5,0.5l-0.1,0.1
		l-2.5-5.5l3.4-1.5c1.5-0.7,3.3-0.7,4.9-0.2l6.1,2.3c0.7,0.2,1,1,0.7,1.6c-0.2,0.5-0.7,0.8-1.2,0.8c-0.1,0-0.3,0-0.4-0.1l-4.8-1.6
		c0,0-0.1,0-0.2,0c-0.2,0-0.4,0.1-0.4,0.3c-0.1,0.2,0,0.5,0.3,0.6c0,0,0,0,0,0l4.8,1.6c0.2,0.1,0.5,0.1,0.7,0.1
		c0.6,0,1.1-0.2,1.5-0.6c0,0,0,0,0,0l7-2.6c0.2-0.1,0.4-0.1,0.5-0.1c0.8,0,1.4,0.6,1.4,1.4C30.9,22.1,30.9,22.2,30.8,22.4z"/>
</g>
</svg>
