<svg xmlns="http://www.w3.org/2000/svg" viewBox="0 0 31.72 31.72"><title>Integration</title><g id="Layer_2" data-name="Layer 2"><g id="Layer_1-2" data-name="Layer 1"><path style="" fill="#f00155" d="M15.85,6.33a9.35,9.35,0,0,0-3.64.73A9.54,9.54,0,1,0,24.67,19.52,9.54,9.54,0,0,0,15.85,6.33Zm7.88,12.8a8.53,8.53,0,1,1,0-6.52A8.47,8.47,0,0,1,23.73,19.13Z"/><path d="M5.25,5.49A14.72,14.72,0,0,1,15.69,1h.18A14.77,14.77,0,0,1,26.23,5.24l.24.24-2,0A.5.5,0,0,0,24,6a.51.51,0,0,0,.51.5l3.22,0a.49.49,0,0,0,.35-.15A.55.55,0,0,0,28.21,6l0-3.21a.5.5,0,0,0-.51-.5h0a.51.51,0,0,0-.51.51l0,2-.24-.24A15.79,15.79,0,0,0,15.85,0h-.17A15.88,15.88,0,0,0,.93,21.23a.51.51,0,0,0,.48.34l.17,0a.5.5,0,0,0,.3-.65A14.76,14.76,0,0,1,5.25,5.49Z"/><path d="M30.79,10.51a.52.52,0,0,0-.49-.34.45.45,0,0,0-.16,0,.51.51,0,0,0-.31.65,14.84,14.84,0,0,1-14,19.85A14.79,14.79,0,0,1,5.49,26.49l-.24-.24,2,0a.51.51,0,0,0,.5-.51.52.52,0,0,0-.51-.51L4,25.25a.51.51,0,0,0-.51.52l0,3.21a.51.51,0,0,0,1,0l0-2,.24.23a15.86,15.86,0,0,0,26-16.7Z"/></g></g></svg>