<svg xmlns="http://www.w3.org/2000/svg" viewBox="0 0 32 31.81"><title>New Deployment</title><g id="Layer_2" data-name="Layer 2"><g id="Layer_1-2" data-name="Layer 1"><path d="M23.07,6.55a2.56,2.56,0,1,0,1.82.75A2.58,2.58,0,0,0,23.07,6.55Zm1.09,3.66a1.55,1.55,0,0,1-1.09.46,1.59,1.59,0,0,1-1.1-.46A1.56,1.56,0,0,1,22,8a1.58,1.58,0,0,1,1.1-.45,1.55,1.55,0,0,1,1.55,1.55A1.5,1.5,0,0,1,24.16,10.21Z"/><path d="M7.72,25.8a.59.59,0,0,0-.23-.05A.5.5,0,0,0,7,26l-.76,1.51a2.21,2.21,0,0,1-1.82,1.22l-.91.06a.5.5,0,0,1-.49-.53l.06-.88a2.22,2.22,0,0,1,1.21-1.82l1.52-.75a.52.52,0,0,0,.23-.68.52.52,0,0,0-.46-.29.46.46,0,0,0-.23.06l-1.51.75A3.24,3.24,0,0,0,2.1,27.34L2,28.22a1.52,1.52,0,0,0,.44,1.18,1.54,1.54,0,0,0,1.07.44h.11l.87-.06A3.25,3.25,0,0,0,7.2,28L8,26.49a.53.53,0,0,0,0-.39A.55.55,0,0,0,7.72,25.8Z"/><path d="M31.6.38a1.42,1.42,0,0,0-1-.38L30,0A18.92,18.92,0,0,0,16.52,7L15.09,8.74l-3.7-.11a10.59,10.59,0,0,0-7.53,3.12L.15,15.46A.53.53,0,0,0,0,16a.53.53,0,0,0,.46.32l8.09.42-.47.58a.5.5,0,0,0,0,.56c.12.23.25.45.39.67l0,.07L6.57,20.91a.5.5,0,0,0-.07.55,8.19,8.19,0,0,0,1.58,2.27,8.55,8.55,0,0,0,2.31,1.63.58.58,0,0,0,.55-.07l1.38-1.15.94-.78.08,0c.18.11.36.22.55.32a.5.5,0,0,0,.24.06.49.49,0,0,0,.31-.11l.62-.47.42,8.12a.51.51,0,0,0,.32.46.58.58,0,0,0,.19,0,.55.55,0,0,0,.36-.15L20.06,28a10.61,10.61,0,0,0,3.12-7.53V16.9l1.51-1.18A18.84,18.84,0,0,0,32,1.71l0-.3A1.36,1.36,0,0,0,31.6.38Zm-29.91,15,2.9-2.9a9.52,9.52,0,0,1,6.79-2.82l2.9.09-4.9,6Zm8.86,8.92-.08,0A7,7,0,0,1,8.81,23a7,7,0,0,1-1.2-1.61l0-.08,1.52-1.8.09.13a14,14,0,0,0,1.34,1.55,13.71,13.71,0,0,0,1.73,1.49l.12.09Zm11.61-3.87a9.55,9.55,0,0,1-2.82,6.8l-2.9,2.9L16,22.43l6.12-4.74ZM31,1.66a17.85,17.85,0,0,1-6.89,13.25l-10,7.75-.07,0a13.66,13.66,0,0,1-2.31-1.71l-.09-.08L15,17.39a.48.48,0,0,0,.15-.36.51.51,0,0,0-.15-.36.48.48,0,0,0-.36-.15.49.49,0,0,0-.36.15L10.89,20.1,10.8,20a13.55,13.55,0,0,1-1.63-2.23l0-.08L17.31,7.63A17.93,17.93,0,0,1,30.05,1.06l.61,0a.31.31,0,0,1,.22.09.33.33,0,0,1,.1.25Z"/></g></g></svg>