<?xml version="1.0" encoding="utf-8"?>
<!-- Generator: Adobe Illustrator 23.0.2, SVG Export Plug-In . SVG Version: 6.00 Build 0)  -->
<svg version="1.1" id="Layer_1" xmlns="http://www.w3.org/2000/svg" xmlns:xlink="http://www.w3.org/1999/xlink" x="0px" y="0px"
	 viewBox="0 0 32 31.7" style="enable-background:new 0 0 32 31.7;" xml:space="preserve">
<g>
	<path style="" fill="#f00155" d="M23.5,21.6L22,21c-0.1,0-0.1,0-0.2,0c-0.2,0-0.4,0.1-0.4,0.3c-0.1,0.2,0,0.5,0.2,0.6c0,0,0,0,0,0l1.5,0.6
		c0.3,0.1,0.4,0.5,0.3,0.7c0,0,0,0,0,0l-0.7,1.6c-0.1,0.1-0.2,0.2-0.3,0.3c-0.1,0-0.1,0-0.2,0c-0.1,0-0.1,0-0.2,0l-1.5-0.6
		c-0.1,0-0.1,0-0.2,0c-0.2,0-0.3,0.1-0.4,0.2c-0.7,1-1.5,1.9-2.6,2.6c-0.2,0.1-0.3,0.4-0.2,0.6l0.6,1.5c0.1,0.3,0,0.6-0.3,0.7
		c0,0,0,0,0,0l-1.6,0.7c-0.1,0-0.1,0-0.2,0c-0.1,0-0.2,0-0.2,0c-0.1-0.1-0.3-0.2-0.3-0.3L14.5,29c-0.1-0.2-0.2-0.3-0.4-0.3H14
		c-0.6,0.1-1.2,0.2-1.8,0.2c-0.6,0-1.3-0.1-1.9-0.2c-0.2,0-0.4,0.1-0.4,0.3l-0.6,1.5c-0.1,0.2-0.3,0.4-0.5,0.4c-0.1,0-0.1,0-0.2,0
		l-1.6-0.7c-0.1-0.1-0.2-0.2-0.3-0.3c-0.1-0.1-0.1-0.3,0-0.4l0.6-1.5c0.1-0.2,0.1-0.5-0.1-0.7c0,0-0.1,0-0.1,0
		c-1-0.7-1.9-1.5-2.6-2.6c-0.1-0.1-0.2-0.2-0.4-0.2c-0.1,0-0.1,0-0.2,0l-1.5,0.6c-0.1,0-0.1,0-0.2,0c-0.1,0-0.1,0-0.2,0
		c-0.1-0.1-0.3-0.2-0.3-0.3L1,23.2c-0.1-0.1-0.1-0.3,0-0.4c0.1-0.1,0.2-0.3,0.3-0.3l1.5-0.6c0.2-0.1,0.3-0.3,0.3-0.5
		c-0.2-1.2-0.2-2.4,0-3.6c0-0.2-0.1-0.4-0.3-0.5l-1.5-0.6c-0.1-0.1-0.2-0.2-0.3-0.3c-0.1-0.1-0.1-0.3,0-0.4l0.7-1.6
		C1.8,14,2,13.8,2.2,13.8c0.1,0,0.1,0,0.2,0l1.5,0.6c0.1,0,0.1,0,0.2,0c0.2,0,0.3-0.1,0.4-0.2c0.7-1,1.5-1.8,2.5-2.5
		c0.2-0.1,0.3-0.4,0.2-0.6L6.6,9.7c-0.1-0.1-0.1-0.3,0-0.4C6.6,9.1,6.8,9,6.9,8.9l1.6-0.7c0.1,0,0.1,0,0.2,0c0.1,0,0.1,0,0.2,0
		c0.1,0.1,0.3,0.2,0.3,0.3l0.6,1.5c0.1,0.2,0.2,0.3,0.4,0.3h0.2c0.1-0.1,0.2-0.1,0.3-0.3c0.1-0.1,0.1-0.2,0-0.4l-0.6-1.5
		C10,7.9,9.7,7.6,9.3,7.4C9.1,7.4,8.9,7.3,8.7,7.3c-0.2,0-0.4,0-0.6,0.1L6.5,8.1c-0.8,0.3-1.1,1.2-0.8,2c0,0,0,0,0,0l0.5,1.1
		l-0.1,0.1c-0.8,0.6-1.5,1.3-2.1,2l-0.1,0.1L2.8,13c-0.2-0.1-0.4-0.1-0.6-0.1c-0.6,0-1.2,0.4-1.4,0.9l-0.7,1.6c-0.3,0.8,0,1.6,0.8,2
		c0,0,0,0,0,0l1.1,0.5V18c-0.1,1-0.1,2,0,2.9v0.2l-1.1,0.5c-0.4,0.1-0.7,0.4-0.8,0.8c-0.2,0.4-0.2,0.8,0,1.2l0.7,1.6
		c0.2,0.4,0.5,0.6,0.8,0.8c0.2,0.1,0.4,0.1,0.6,0.1c0.2,0,0.4,0,0.6-0.1l1.1-0.5L4,25.6c0.6,0.8,1.3,1.5,2.1,2.1l0.1,0.1L5.7,29
		c-0.1,0.4-0.1,0.8,0,1.2c0.1,0.4,0.4,0.7,0.8,0.8l1.6,0.7c0.2,0.1,0.4,0.1,0.6,0.1c0.6,0,1.2-0.4,1.4-0.9l0.5-1.1h0.1
		c0.5,0.1,1,0.1,1.5,0.1c0.5,0,1,0,1.5-0.1h0.1l0.5,1.1c0.2,0.4,0.4,0.7,0.8,0.8c0.4,0.1,0.8,0.1,1.2,0l1.6-0.7
		c0.4-0.1,0.7-0.4,0.8-0.8c0.2-0.4,0.2-0.8,0-1.1l-0.5-1.1l0.1-0.1c0.8-0.6,1.5-1.3,2.1-2.1l0.1-0.1l1.1,0.5c0.4,0.2,0.8,0.2,1.1,0
		c0.4-0.2,0.7-0.4,0.8-0.8l0.7-1.6C24.6,22.8,24.3,21.9,23.5,21.6z"/>
	<path style="" fill="#f00155" d="M7,19.5L7,19.5c0.1,2.8,2.4,5.1,5.2,5.1c2.8,0,5.1-2.3,5.1-5.2c0,0,0,0,0,0c0-0.3-0.2-0.5-0.5-0.5c-0.1,0-0.2,0.1-0.3,0.1
		c-0.1,0.1-0.1,0.2-0.1,0.3c0,2.3-1.8,4.2-4.2,4.2c-2.3,0-4.2-1.8-4.2-4.2c0-2.3,1.8-4.2,4.2-4.2c0.1,0,0.2,0,0.3-0.1
		c0.1-0.1,0.1-0.2,0.1-0.3c0-0.3-0.2-0.5-0.5-0.5c0,0,0,0,0,0C9.3,14.4,7,16.7,7,19.5z"/>
	<path style="" fill="#f00155" d="M30.8,7.5H30V7.4c-0.2-0.6-0.4-1.2-0.7-1.8l-0.1-0.1l0.6-0.6c0.5-0.5,0.5-1.3,0-1.7l-0.9-0.9c-0.2-0.2-0.5-0.4-0.9-0.4
		c-0.3,0-0.6,0.1-0.9,0.4l-0.6,0.6l-0.1-0.1c-0.6-0.3-1.1-0.6-1.8-0.7h-0.1V1.2C24.5,0.5,24,0,23.3,0c0,0,0,0,0,0H22
		c-0.7,0-1.2,0.6-1.2,1.2V2h-0.1c-0.6,0.2-1.2,0.4-1.8,0.7l-0.1,0.1l-0.6-0.6C18,2,17.6,1.9,17.3,1.9c-0.3,0-0.6,0.1-0.9,0.4
		l-0.9,0.9c-0.2,0.2-0.4,0.5-0.4,0.9c0,0.3,0.1,0.6,0.4,0.9l0.6,0.6L16,5.6c-0.3,0.6-0.6,1.2-0.7,1.8v0.1h-0.8
		c-0.7,0-1.2,0.6-1.2,1.2V10c0,0.7,0.6,1.2,1.2,1.2h0.8v0.1c0.2,0.6,0.4,1.2,0.7,1.8l0.1,0.1l-0.6,0.6c-0.2,0.2-0.4,0.5-0.4,0.9
		c0,0.3,0.1,0.6,0.4,0.9l0.9,0.9c0.2,0.2,0.5,0.4,0.9,0.4c0.3,0,0.6-0.1,0.9-0.4l0.6-0.6l0.1,0.1c0.6,0.3,1.2,0.6,1.8,0.7h0.1v0.8
		c0,0.7,0.5,1.2,1.2,1.3c0,0,0.1,0,0.1,0h1.3c0.7,0,1.2-0.6,1.2-1.2v-0.8h0.1c0.6-0.2,1.2-0.4,1.7-0.8l0.1-0.1l0.6,0.6
		c0.5,0.5,1.3,0.5,1.7,0c0,0,0,0,0,0l0.9-0.9c0.5-0.5,0.5-1.3,0-1.7l-0.6-0.6l0.1-0.1c0.3-0.6,0.6-1.1,0.7-1.8v-0.1h0.8
		c0.7,0,1.2-0.5,1.3-1.2c0,0,0-0.1,0-0.1V8.7C32,8.1,31.4,7.5,30.8,7.5z M31,10c0,0.2-0.1,0.3-0.3,0.3h-1.2c-0.2,0-0.4,0.2-0.5,0.4
		c-0.2,0.9-0.5,1.7-1,2.4c-0.1,0.2-0.1,0.4,0.1,0.6l0.8,0.8c0.1,0,0.1,0.1,0.1,0.2v0.2l-1,1c0,0.1-0.1,0.1-0.2,0.1h-0.2L26.9,15
		c-0.1-0.1-0.2-0.1-0.3-0.1c-0.1,0-0.2,0-0.3,0.1c-0.7,0.5-1.5,0.8-2.4,1c-0.2,0-0.4,0.2-0.4,0.5v1.2c0,0.2-0.1,0.3-0.3,0.3
		c0,0,0,0,0,0H22c-0.2,0-0.3-0.1-0.3-0.3c0,0,0,0,0,0v-1.2c0-0.2-0.2-0.4-0.4-0.5c-0.9-0.2-1.7-0.5-2.4-1c-0.1,0-0.2-0.1-0.3-0.1
		c-0.1,0-0.2,0-0.3,0.1l-0.8,0.8c-0.1,0.1-0.1,0.1-0.2,0.1h-0.1l-1-1c0-0.1-0.1-0.1-0.1-0.2v-0.2l0.9-0.9c0.2-0.2,0.2-0.4,0.1-0.6
		c-0.5-0.7-0.8-1.5-1-2.4c0-0.2-0.2-0.4-0.5-0.4h-1.1c-0.2,0-0.3-0.1-0.3-0.3c0,0,0,0,0,0V8.7c0-0.2,0.1-0.3,0.3-0.3c0,0,0,0,0,0
		h1.2c0.2,0,0.4-0.2,0.5-0.4c0.2-0.9,0.5-1.7,1-2.4c0.1-0.2,0.1-0.4-0.1-0.6l-0.8-0.8c0-0.1-0.1-0.1-0.1-0.2V3.9l1-1
		c0.1-0.1,0.1-0.1,0.2-0.1h0.2l0.9,0.9c0.1,0.1,0.2,0.1,0.3,0.1c0.1,0,0.2,0,0.3-0.1c0.7-0.5,1.5-0.8,2.4-1c0.2,0,0.4-0.2,0.4-0.5
		V1.2c0-0.2,0.1-0.3,0.3-0.3c0,0,0.1,0,0.1,0h1.3c0.2,0,0.3,0.1,0.3,0.3v0v1.2c0,0.2,0.2,0.4,0.4,0.5c0.9,0.2,1.7,0.5,2.4,1
		c0.1,0.1,0.2,0.1,0.3,0.1c0.1,0,0.2,0,0.3-0.1L27.7,3c0.1,0,0.1-0.1,0.2-0.1h0.2l1,1C29.1,4,29.1,4,29.1,4.1v0.2l-0.9,0.9
		c-0.2,0.2-0.2,0.4-0.1,0.6c0.5,0.7,0.8,1.5,1,2.4c0,0.2,0.2,0.4,0.5,0.4h1.2c0.2,0,0.3,0.1,0.3,0.3c0,0,0,0,0,0L31,10z"/>
	<path style="" fill="#f00155" d="M22.6,5.7c-2,0-3.7,1.7-3.7,3.7s1.7,3.7,3.7,3.7s3.7-1.7,3.7-3.7S24.7,5.7,22.6,5.7z M25.4,9.4c0,1.5-1.2,2.7-2.8,2.8
		c-1.5,0-2.8-1.2-2.8-2.8c0-1.5,1.2-2.8,2.8-2.8C24.1,6.6,25.4,7.8,25.4,9.4C25.4,9.4,25.4,9.4,25.4,9.4z"/>
</g>
</svg>
