<svg xmlns="http://www.w3.org/2000/svg" viewBox="0 0 32 31.7"><title>Orchestration</title><g id="Layer_2" data-name="Layer 2"><g id="Layer_1-2" data-name="Layer 1"><path style="" fill="#f00155" d="M23.49,21.58,22,21a.39.39,0,0,0-.18,0,.46.46,0,0,0-.43.3.46.46,0,0,0,.26.61l1.48.61a.57.57,0,0,1,.31.75l-.67,1.62a.67.67,0,0,1-.31.31.54.54,0,0,1-.22,0,.57.57,0,0,1-.22,0l-1.48-.62a.58.58,0,0,0-.19,0,.5.5,0,0,0-.39.2,9.08,9.08,0,0,1-2.56,2.57.48.48,0,0,0-.18.57l.61,1.49a.57.57,0,0,1-.31.75l-1.61.66a.54.54,0,0,1-.22.05.59.59,0,0,1-.22-.05.56.56,0,0,1-.31-.31l-.61-1.48a.47.47,0,0,0-.43-.3l-.1,0a9.9,9.9,0,0,1-1.8.18,11.23,11.23,0,0,1-1.92-.19.48.48,0,0,0-.44.29l-.61,1.48a.55.55,0,0,1-.53.35.57.57,0,0,1-.22,0l-1.62-.67a.54.54,0,0,1-.3-.31.61.61,0,0,1,0-.44l.62-1.48A.47.47,0,0,0,7,27.24a9.21,9.21,0,0,1-2.57-2.56.49.49,0,0,0-.4-.21.51.51,0,0,0-.17,0l-1.49.62a.78.78,0,0,1-.21,0A.54.54,0,0,1,2,25.11a.53.53,0,0,1-.31-.31L1,23.19a.56.56,0,0,1,0-.44.59.59,0,0,1,.31-.31l1.49-.61a.48.48,0,0,0,.28-.53,9.24,9.24,0,0,1,0-3.63.5.5,0,0,0-.28-.53l-1.49-.61a.55.55,0,0,1-.3-.3.58.58,0,0,1,0-.45l.67-1.61a.57.57,0,0,1,.53-.36.54.54,0,0,1,.22,0l1.49.61a.58.58,0,0,0,.18,0,.47.47,0,0,0,.39-.21A9.12,9.12,0,0,1,7,11.73a.47.47,0,0,0,.17-.57L6.59,9.68a.56.56,0,0,1,0-.44.53.53,0,0,1,.31-.31l1.61-.67a.57.57,0,0,1,.22,0,.54.54,0,0,1,.22,0,.53.53,0,0,1,.31.31l.62,1.49a.46.46,0,0,0,.43.29l.18,0a.51.51,0,0,0,.26-.26.45.45,0,0,0,0-.36l-.62-1.49a1.46,1.46,0,0,0-.81-.81,1.54,1.54,0,0,0-.58-.12,1.43,1.43,0,0,0-.58.12l-1.62.66a1.52,1.52,0,0,0-.82,2l.47,1.13-.11.09A10.1,10.1,0,0,0,4,13.35l-.08.11L2.77,13a1.43,1.43,0,0,0-.58-.12,1.5,1.5,0,0,0-1.39.94L.12,15.43a1.5,1.5,0,0,0,.81,2l1.14.47,0,.14a10.41,10.41,0,0,0,0,2.95l0,.15-1.14.47a1.46,1.46,0,0,0-.81.81,1.46,1.46,0,0,0,0,1.16l.66,1.62A1.57,1.57,0,0,0,1.6,26a1.66,1.66,0,0,0,.58.11A1.66,1.66,0,0,0,2.76,26l1.13-.47.09.11a9.86,9.86,0,0,0,2.09,2.09l.11.09-.47,1.13a1.53,1.53,0,0,0,0,1.15,1.44,1.44,0,0,0,.82.82l1.62.68a1.6,1.6,0,0,0,.57.11,1.49,1.49,0,0,0,1.4-.93l.47-1.14.14,0a10.53,10.53,0,0,0,1.48.11,10.28,10.28,0,0,0,1.47-.11l.14,0,.48,1.14a1.51,1.51,0,0,0,.81.82,1.58,1.58,0,0,0,1.16,0l1.62-.67a1.45,1.45,0,0,0,.81-.82,1.48,1.48,0,0,0,0-1.15l-.47-1.14.11-.08a10.35,10.35,0,0,0,2.09-2.09l.08-.12,1.14.47a1.44,1.44,0,0,0,1.15,0,1.5,1.5,0,0,0,.82-.82l.68-1.61A1.52,1.52,0,0,0,23.49,21.58Z"/><path d="M7.08,19.53a5.15,5.15,0,0,0,5.13,5.1h0a5.14,5.14,0,0,0,5.1-5.18.47.47,0,0,0-.81-.32.46.46,0,0,0-.13.33,4.19,4.19,0,1,1-4.22-4.16.44.44,0,0,0,.33-.14.48.48,0,0,0,.14-.34.47.47,0,0,0-.48-.46,5.14,5.14,0,0,0-5.1,5.17Z"/><path d="M30.77,7.52H30l0-.13a7.45,7.45,0,0,0-.74-1.77l-.07-.12.57-.56a1.25,1.25,0,0,0,0-1.74l-.9-.9a1.24,1.24,0,0,0-.87-.36,1.23,1.23,0,0,0-.87.36l-.56.57-.12-.07a7.28,7.28,0,0,0-1.77-.74l-.13,0V1.23A1.24,1.24,0,0,0,23.25,0H22a1.23,1.23,0,0,0-1.23,1.23V2l-.13,0a7.28,7.28,0,0,0-1.77.74l-.12.07-.56-.57a1.24,1.24,0,0,0-.87-.36,1.23,1.23,0,0,0-.87.36l-.9.9a1.24,1.24,0,0,0-.36.87,1.23,1.23,0,0,0,.36.87l.56.56L16,5.62a7.67,7.67,0,0,0-.73,1.77l0,.13h-.79a1.23,1.23,0,0,0-1.23,1.23V10a1.23,1.23,0,0,0,1.23,1.23h.79l0,.13A7.67,7.67,0,0,0,16,13.16l.07.12-.56.56a1.24,1.24,0,0,0-.36.87,1.23,1.23,0,0,0,.36.87l.9.9a1.24,1.24,0,0,0,.87.36,1.23,1.23,0,0,0,.87-.36l.56-.56.12.07a7.67,7.67,0,0,0,1.77.73l.13,0v.79A1.23,1.23,0,0,0,22,18.78h1.28a1.23,1.23,0,0,0,1.23-1.23v-.79l.13,0A7.67,7.67,0,0,0,26.38,16l.12-.07.56.56a1.23,1.23,0,0,0,1.74,0l.9-.9a1.25,1.25,0,0,0,0-1.74l-.57-.56.07-.12a7.28,7.28,0,0,0,.74-1.77l0-.13h.79A1.23,1.23,0,0,0,32,10V8.75A1.23,1.23,0,0,0,30.77,7.52ZM31.05,10a.29.29,0,0,1-.29.29H29.59a.47.47,0,0,0-.46.38,6.52,6.52,0,0,1-1,2.39.47.47,0,0,0,.06.59l.82.83a.25.25,0,0,1,.09.2l0,.15-1,1a.25.25,0,0,1-.2.09l-.15,0L26.9,15a.48.48,0,0,0-.34-.14.5.5,0,0,0-.26.08,6.64,6.64,0,0,1-2.39,1,.46.46,0,0,0-.38.46v1.17a.28.28,0,0,1-.29.28H22a.28.28,0,0,1-.29-.28V16.37a.46.46,0,0,0-.38-.46,6.57,6.57,0,0,1-2.39-1,.5.5,0,0,0-.27-.07.51.51,0,0,0-.33.13l-.82.83a.32.32,0,0,1-.21.08l-.14,0-1-.95a.32.32,0,0,1-.08-.2l0-.15.88-.88a.47.47,0,0,0,.06-.59,6.69,6.69,0,0,1-1-2.4.48.48,0,0,0-.46-.38H14.44a.28.28,0,0,1-.28-.29V8.74a.28.28,0,0,1,.28-.29h1.17a.46.46,0,0,0,.46-.38,6.64,6.64,0,0,1,1-2.39.5.5,0,0,0-.06-.6l-.83-.82a.32.32,0,0,1-.08-.2l0-.15.95-1a.28.28,0,0,1,.2-.09l.15,0,.88.88a.48.48,0,0,0,.34.14.5.5,0,0,0,.26-.08,6.38,6.38,0,0,1,2.39-1,.48.48,0,0,0,.38-.46V1.23A.28.28,0,0,1,22,.94h1.27a.29.29,0,0,1,.29.29V2.4a.46.46,0,0,0,.38.46,6.63,6.63,0,0,1,2.39,1,.42.42,0,0,0,.26.08.47.47,0,0,0,.34-.13L27.72,3a.32.32,0,0,1,.2-.08l.15,0,.95,1a.27.27,0,0,1,.09.2l0,.15-.88.88a.46.46,0,0,0-.06.59,6.52,6.52,0,0,1,1,2.39.48.48,0,0,0,.46.39h1.17a.28.28,0,0,1,.29.28Z"/><path d="M22.61,5.68a3.7,3.7,0,1,0,3.7,3.7A3.7,3.7,0,0,0,22.61,5.68Zm0,6.46a2.76,2.76,0,1,1,2.75-2.76A2.77,2.77,0,0,1,22.61,12.14Z"/></g></g></svg>