<svg xmlns="http://www.w3.org/2000/svg" viewBox="0 0 23.86 32"><title>Platform development</title><g id="Layer_2" data-name="Layer 2"><g id="Layer_1-2" data-name="Layer 1"><path d="M4.86,17.62H18.41a6,6,0,0,0,5.45-6,6,6,0,0,0-4.38-5.8l-.12,0,0-.12A6.84,6.84,0,0,0,6.68,3.42l-.07.12-.13,0a3.88,3.88,0,0,0-.7-.06A3.66,3.66,0,0,0,2.12,7.11a3.84,3.84,0,0,0,.08.76l0,.12-.1.07A5.14,5.14,0,0,0,0,12.21,5.43,5.43,0,0,0,4.86,17.62Zm-1.81-9A.48.48,0,0,0,3.26,8a2.51,2.51,0,0,1-.17-.92A2.7,2.7,0,0,1,5.78,4.42a2.59,2.59,0,0,1,.92.17.45.45,0,0,0,.16,0,.49.49,0,0,0,.45-.29A5.86,5.86,0,0,1,18.44,6.27a.5.5,0,0,0,.41.43,5,5,0,0,1-.5,9.94H4.9A4.44,4.44,0,0,1,1,12.21,4.2,4.2,0,0,1,3.05,8.61Z"/><path d="M12.55,27.81l-.14,0v-8a.49.49,0,1,0-1,0v8l-.13,0a2.14,2.14,0,0,0-.93,3.53,2.14,2.14,0,0,0,1.49.66h.06a2.15,2.15,0,0,0,1.55-3.62A2.3,2.3,0,0,0,12.55,27.81ZM11.9,31a1.19,1.19,0,0,1-.81-.36,1.22,1.22,0,0,1-.33-.83,1.18,1.18,0,0,1,1.17-1.14h0a1.12,1.12,0,0,1,.81.36,1.15,1.15,0,0,1,.33.83A1.19,1.19,0,0,1,11.9,31Z"/><path d="M8.27,19.24a.49.49,0,0,0-.49.49v3.78a1.37,1.37,0,0,1-1.37,1.37H4.28l0-.14a2.17,2.17,0,0,0-2.05-1.52A2.15,2.15,0,1,0,4.24,26l0-.13H6.41a2.34,2.34,0,0,0,2.34-2.34V19.73A.48.48,0,0,0,8.27,19.24ZM2.19,26.53a1.17,1.17,0,1,1,1.17-1.17A1.17,1.17,0,0,1,2.19,26.53Z"/><path d="M21.66,23.23a2.14,2.14,0,0,0-2.05,1.52l0,.13H17.44a1.36,1.36,0,0,1-1.36-1.36V19.73a.49.49,0,0,0-1,0v3.79a2.34,2.34,0,0,0,2.34,2.34h2.13l0,.13a2.15,2.15,0,1,0,2.05-2.76Zm0,3.31a1.17,1.17,0,1,1,1.17-1.17A1.17,1.17,0,0,1,21.66,26.54Z"/></g></g></svg>