<svg xmlns="http://www.w3.org/2000/svg" viewBox="0 0 31.76 31.47"><title>Reporting &amp;amp; Dashboards</title><g id="Layer_2" data-name="Layer 2"><g id="Layer_1-2" data-name="Layer 1"><path style="" fill="#f00155" d="M7.52,14.22h-7a.52.52,0,0,0-.53.53V31a.52.52,0,0,0,.53.52h7A.52.52,0,0,0,8.05,31V14.75A.53.53,0,0,0,7.52,14.22ZM7,30.3v.12H1.05V15.28H7Z"/><path d="M19.38,0h-7a.52.52,0,0,0-.53.53V30.94a.53.53,0,0,0,.53.53h7a.53.53,0,0,0,.53-.53V.53A.53.53,0,0,0,19.38,0Zm-.53,30.42H12.91V1.05h5.94Z"/><path d="M31.23,9.83h-7a.52.52,0,0,0-.53.52V30.94a.53.53,0,0,0,.53.53h7.08a.53.53,0,0,0,.44-.52V10.35A.52.52,0,0,0,31.23,9.83Zm-.52,20.59H24.77V10.88h5.94Z"/></g></g></svg>