<?xml version="1.0" encoding="utf-8"?>
<!-- Generator: Adobe Illustrator 23.0.2, SVG Export Plug-In . SVG Version: 6.00 Build 0)  -->
<svg version="1.1" id="Layer_1" xmlns="http://www.w3.org/2000/svg" xmlns:xlink="http://www.w3.org/1999/xlink" x="0px" y="0px"
	 viewBox="0 0 31.8 31.5" style="enable-background:new 0 0 31.8 31.5;" xml:space="preserve">
<g>
	<path d="M7.5,14.2h-7c-0.3,0-0.5,0.2-0.5,0.5c0,0,0,0,0,0V31c0,0.3,0.2,0.5,0.5,0.5c0,0,0,0,0,0h7C7.8,31.5,8,31.3,8,31
		c0,0,0,0,0,0V14.8C8,14.5,7.8,14.2,7.5,14.2z M7,30.3v0.1H1V15.3h6V30.3z"/>
	<path d="M19.4,0h-7c-0.3,0-0.5,0.2-0.5,0.5c0,0,0,0,0,0v30.4c0,0.3,0.2,0.5,0.5,0.5h7c0.3,0,0.5-0.2,0.5-0.5c0,0,0,0,0,0V0.5
		C19.9,0.2,19.7,0,19.4,0z M18.8,30.4h-5.9V1.1h5.9V30.4z"/>
	<path d="M31.2,9.8h-7c-0.3,0-0.5,0.2-0.5,0.5c0,0,0,0,0,0v20.6c0,0.3,0.2,0.5,0.5,0.5h7.1c0.3,0,0.4-0.3,0.4-0.5V10.4
		C31.8,10.1,31.5,9.8,31.2,9.8z M30.7,30.4h-5.9V10.9h5.9V30.4z"/>
</g>
</svg>
