<svg xmlns="http://www.w3.org/2000/svg" viewBox="0 0 30.41 32"><title>ServiceWatch</title><g id="Layer_2" data-name="Layer 2"><g id="Layer_1-2" data-name="Layer 1"><path d="M9.13,32a.53.53,0,1,1,0-1.06h2.75V19.66L9.49,20.84a2.2,2.2,0,0,1-1,.23,2.14,2.14,0,0,1-1.46-.57L7,20.42,4.52,21.63a2.17,2.17,0,0,1-1,.22,2.14,2.14,0,0,1-1.94-1.19L.23,17.88a2.18,2.18,0,0,1-.12-1.66A2.2,2.2,0,0,1,1.2,15l2.48-1.23v-.12a2.18,2.18,0,0,1,1.2-2.08L17.14,5.45l-.05-.15a2,2,0,0,1,1-2.37L23.87.05a.69.69,0,0,1,.24,0,.52.52,0,0,1,.47.29L30.35,12a.56.56,0,0,1,0,.4.55.55,0,0,1-.27.31l-5.8,2.87a2,2,0,0,1-.86.2,1.94,1.94,0,0,1-1.61-.85l-.09-.13L17.84,16.7V30.94h2.75a.53.53,0,0,1,0,1.06Zm3.8-12.86v11.8h3.86V17.22ZM1.67,15.92a1.11,1.11,0,0,0-.5,1.49l1.39,2.78a1.12,1.12,0,0,0,1,.61,1.07,1.07,0,0,0,.49-.12l2.36-1.17L4.05,14.74Zm3.67-3.44A1.11,1.11,0,0,0,4.84,14L7.53,19.4a1.1,1.1,0,0,0,1,.61A1.08,1.08,0,0,0,9,19.9l12.26-6.08L17.61,6.4Zm13.2-8.61a.91.91,0,0,0-.41,1.2l4.52,9.12a.88.88,0,0,0,.8.49.89.89,0,0,0,.39-.09L29.17,12,23.87,1.24Z"/></g></g></svg>