<?xml version="1.0" encoding="utf-8"?>
<!-- Generator: Adobe Illustrator 23.0.2, SVG Export Plug-In . SVG Version: 6.00 Build 0)  -->
<svg version="1.1" id="Layer_1" xmlns="http://www.w3.org/2000/svg" xmlns:xlink="http://www.w3.org/1999/xlink" x="0px" y="0px"
	 viewBox="0 0 30.4 32" style="enable-background:new 0 0 30.4 32;" xml:space="preserve">
<path style="" fill="#f00155" d="M30.3,12L24.6,0.3C24.5,0.2,24.3,0,24.1,0c-0.1,0-0.2,0-0.2,0l-5.8,2.9c-0.9,0.4-1.3,1.4-1,2.4l0,0.2L4.9,11.6
	c-0.8,0.4-1.3,1.2-1.2,2.1v0.1L1.2,15c-0.5,0.3-0.9,0.7-1.1,1.2c-0.2,0.5-0.1,1.1,0.1,1.7l1.4,2.8c0.4,0.7,1.1,1.2,1.9,1.2
	c0.3,0,0.7-0.1,1-0.2L7,20.4l0,0.1c0.4,0.4,0.9,0.6,1.5,0.6c0.3,0,0.7-0.1,1-0.2l2.4-1.2v11.3H9.1c0,0,0,0,0,0
	c-0.3,0-0.5,0.2-0.5,0.5c0,0.3,0.2,0.5,0.5,0.5h11.5c0.3,0,0.5-0.2,0.5-0.5c0-0.3-0.2-0.5-0.5-0.5h-2.8V16.7l3.9-1.9l0.1,0.1
	c0.4,0.5,1,0.9,1.6,0.9c0.3,0,0.6-0.1,0.9-0.2l5.8-2.9c0.1-0.1,0.2-0.2,0.3-0.3C30.4,12.3,30.4,12.1,30.3,12z M4,20.7
	c-0.2,0.1-0.3,0.1-0.5,0.1c-0.4,0-0.8-0.2-1-0.6l-1.4-2.8c0,0,0,0,0,0c-0.3-0.5,0-1.2,0.5-1.5L4,14.7l2.4,4.8L4,20.7z M16.8,30.9
	h-3.9V19.1l3.9-1.9V30.9z M9,19.9C8.9,20,8.7,20,8.5,20c-0.4,0-0.8-0.2-1-0.6L4.8,14c0,0,0,0,0,0c-0.3-0.6,0-1.2,0.5-1.5l12.3-6.1
	l3.7,7.4L9,19.9z M23.8,14.6c-0.1,0.1-0.3,0.1-0.4,0.1c-0.3,0-0.6-0.2-0.8-0.5l-4.5-9.1c-0.2-0.4,0-1,0.4-1.2l5.3-2.6L29.2,12
	L23.8,14.6z"/>
</svg>
