<?xml version="1.0" encoding="utf-8"?>
<!-- Generator: Adobe Illustrator 23.0.2, SVG Export Plug-In . SVG Version: 6.00 Build 0)  -->
<svg version="1.1" id="Layer_1" xmlns="http://www.w3.org/2000/svg" xmlns:xlink="http://www.w3.org/1999/xlink" x="0px" y="0px"
	 viewBox="0 0 24.2 32" style="enable-background:new 0 0 24.2 32;" xml:space="preserve">
<g>
	<path style="" fill="#f00155" d="M19.3,11.6L14.6,11l-2.1-4.3c-0.1-0.1-0.2-0.2-0.4-0.2c-0.2,0-0.3,0.1-0.4,0.2L9.6,11l-4.7,0.7c-0.2,0-0.3,0.1-0.3,0.3
		c-0.1,0.2,0,0.3,0.1,0.4l3.4,3.3l-0.8,4.7c0,0.2,0,0.3,0.2,0.4c0.1,0.1,0.2,0.1,0.3,0.1c0.1,0,0.1,0,0.2,0l4.2-2.2l4.2,2.2
		c0.1,0,0.1,0,0.2,0c0.1,0,0.2,0,0.3-0.1c0.1-0.1,0.2-0.3,0.2-0.4l-0.8-4.7l3.4-3.3c0.1-0.1,0.2-0.3,0.1-0.4
		C19.6,11.8,19.4,11.7,19.3,11.6z M15.4,15.2c-0.1,0.1-0.1,0.2-0.1,0.4l0.7,4.1l-3.7-1.9c-0.1,0-0.1,0-0.2,0c-0.1,0-0.1,0-0.2,0
		l-3.7,1.9l0.7-4.1c0-0.1,0-0.3-0.1-0.4l-3-2.9l4.1-0.6c0.1,0,0.3-0.1,0.3-0.2L12,7.8l1.8,3.7c0.1,0.1,0.2,0.2,0.3,0.2l4.1,0.6
		L15.4,15.2z"/>
	<path style="" fill="#f00155" d="M20.8,0.1H3.4c-1.8,0-3.2,1.5-3.3,3.3v28.2c0,0.1,0.1,0.2,0.1,0.3c0.1,0,0.1,0,0.2,0l0.1,0l11.6-6l11.2,6
		c0.1,0,0.3,0,0.4,0h0c0.1,0,0.1,0,0.2,0c0.1-0.1,0.2-0.2,0.2-0.3V3.4C24.1,1.6,22.6,0.1,20.8,0.1z M23.2,30.8l-11-5.8
		c0,0-0.1,0-0.2,0c-0.1,0-0.1,0-0.2,0L1.3,30.6l-0.1-0.3L1,30.5l0-0.3c0-0.3,0-0.6,0-0.9v-26C1,2,2.1,0.9,3.4,0.9h17.4
		c1.3,0,2.4,1.1,2.4,2.4V30.8z"/>
</g>
</svg>
