<svg xmlns="http://www.w3.org/2000/svg" viewBox="0 0 24.16 32"><title>Subscriptions</title><g id="Layer_2" data-name="Layer 2"><g id="Layer_1-2" data-name="Layer 1"><path d="M19.28,11.64,14.56,11,12.45,6.69a.4.4,0,0,0-.37-.24.42.42,0,0,0-.38.24L9.59,11l-4.71.69a.41.41,0,0,0-.34.28.4.4,0,0,0,.11.43l3.41,3.33-.8,4.7a.42.42,0,0,0,.16.41.44.44,0,0,0,.25.08.41.41,0,0,0,.19-.05l4.22-2.22,4.22,2.22a.43.43,0,0,0,.19,0,.38.38,0,0,0,.25-.08.41.41,0,0,0,.17-.41l-.81-4.69,3.41-3.33a.41.41,0,0,0,.11-.43A.44.44,0,0,0,19.28,11.64Zm-3.92,3.6a.4.4,0,0,0-.12.37l.7,4.08-3.66-1.93a.45.45,0,0,0-.2,0,.41.41,0,0,0-.19,0L8.23,19.69l.69-4.08a.4.4,0,0,0-.12-.37l-3-2.88,4.09-.6a.43.43,0,0,0,.32-.23l1.83-3.71,1.83,3.71a.43.43,0,0,0,.32.23l4.09.59Z"/><path d="M20.81,0H3.35A3.36,3.36,0,0,0,0,3.35V31.58a.45.45,0,0,0,.2.36A.46.46,0,0,0,.43,32,.45.45,0,0,0,.62,32l11.46-6,11.21,6a2.55,2.55,0,0,0,.44.05.46.46,0,0,0,.23-.06.45.45,0,0,0,.2-.36V3.35A3.36,3.36,0,0,0,20.81,0Zm2.3,13.64q0,3.54,0,7.06v2.36c0,1.92,0,3.84,0,5.77v1.81L12.28,24.89a.42.42,0,0,0-.4,0L1.36,30.49l-.17-.32-.07.08a5.56,5.56,0,0,0,0-.88c0-.09,0-.15,0-.17V18.92l0-3.09c0-2.06,0-4.11,0-6.17V3.35a2.3,2.3,0,0,1,2.3-2.3H20.81a2.3,2.3,0,0,1,2.3,2.3Z"/></g></g></svg>