<svg xmlns="http://www.w3.org/2000/svg" viewBox="0 0 30.06 32"><title>Support</title><g id="Layer_2" data-name="Layer 2"><g id="Layer_1-2" data-name="Layer 1"><path d="M15,32a2.57,2.57,0,0,1,0-5.13H17.1a2.57,2.57,0,0,1,2.44,1.77l.08.27.28-.05c1.37-.22,4.58-1.24,4.94-5.81l0-.35H23.36a.5.5,0,0,1-.5-.5V12.9a.51.51,0,0,1,.5-.5h1.51V10.83c0-5.61-4-9.84-9.32-9.84h-1C9.2,1,5.19,5.22,5.19,10.83V12.4H6.7a.5.5,0,0,1,.49.5v9.31a.49.49,0,0,1-.49.49H4.17A4.17,4.17,0,0,1,0,18.54v-2a4.17,4.17,0,0,1,3.89-4.16l.31,0V10.83A11.15,11.15,0,0,1,7.1,3.19,10,10,0,0,1,14.52,0h1A10,10,0,0,1,23,3.19a11.15,11.15,0,0,1,2.9,7.64V12.4l.31,0a4.16,4.16,0,0,1,3.88,4.15v2a4.17,4.17,0,0,1-3.91,4.16l-.29,0,0,.29c-.23,3.45-1.93,5.15-3.32,6a7.66,7.66,0,0,1-2.68.92l-.21,0-.06.2A2.57,2.57,0,0,1,17.1,32Zm0-4.13A1.57,1.57,0,1,0,15,31H17.1a1.57,1.57,0,0,0,0-3.14Zm8.82-6.17h2a3.17,3.17,0,0,0,3.17-3.17v-2A3.17,3.17,0,0,0,25.9,13.4h-2ZM4.18,13.4A3.17,3.17,0,0,0,1,16.57v2A3.17,3.17,0,0,0,4.18,21.7h2V13.4Z"/></g></g></svg>