<?xml version="1.0" encoding="utf-8"?>
<!-- Generator: Adobe Illustrator 23.0.2, SVG Export Plug-In . SVG Version: 6.00 Build 0)  -->
<svg version="1.1" id="Layer_1" xmlns="http://www.w3.org/2000/svg" xmlns:xlink="http://www.w3.org/1999/xlink" x="0px" y="0px"
	 viewBox="0 0 30.1 32" style="enable-background:new 0 0 30.1 32;" xml:space="preserve">
<path style="" fill="#f00155" d="M26.2,12.4h-0.3v-1.6c0-2.8-1-5.6-2.9-7.6C21.1,1.1,18.4,0,15.5,0h-1C11.7,0,9,1.1,7.1,3.2C5.2,5.3,4.2,8,4.2,10.8v1.5H3.9
	c-2.2,0.1-3.9,2-3.9,4.2v2c0,2.3,1.9,4.2,4.2,4.2h2.5c0.3,0,0.5-0.2,0.5-0.5v-9.3c0-0.3-0.2-0.5-0.5-0.5H5.2v-1.6
	c0-5.6,4-9.8,9.4-9.8h1c5.3,0,9.3,4.2,9.3,9.8v1.6h-1.5c-0.3,0-0.5,0.2-0.5,0.5v9.3c0,0.3,0.2,0.5,0.5,0.5h1.5V23
	c-0.4,4.6-3.6,5.6-4.9,5.8l-0.3,0l-0.1-0.3c-0.3-1.1-1.3-1.8-2.4-1.8H15c-1.3,0.1-2.3,1.1-2.4,2.4c-0.1,1.4,1,2.6,2.4,2.7h2.1
	c1.2,0,2.2-0.8,2.5-1.9l0.1-0.2h0.2c0.9-0.1,1.9-0.4,2.7-0.9c1.4-0.8,3.1-2.5,3.3-6v-0.3h0.3c2.2-0.1,3.9-2,3.9-4.2v-2
	C30.1,14.4,28.4,12.5,26.2,12.4z M6.2,13.4v8.3h-2c-1.7,0-3.2-1.4-3.2-3.1v-2c0,0,0,0,0,0c0-1.8,1.4-3.2,3.2-3.2H6.2z M17.1,31H15
	c-0.1,0-0.2,0-0.3,0c-0.9-0.1-1.5-0.8-1.4-1.7s0.8-1.5,1.7-1.4l2.1,0c0.9,0,1.6,0.7,1.6,1.6C18.7,30.3,18,31,17.1,31z M29,18.5
	c0,1.8-1.4,3.2-3.2,3.2h-2l0.1-8.3h2c1.7,0,3.1,1.4,3.1,3.1V18.5z"/>
</svg>
